<?xml version="1.0" encoding="utf-8"?>
<!-- Generator: Adobe Illustrator 18.1.1, SVG Export Plug-In . SVG Version: 6.00 Build 0)  -->
<svg version="1.1" id="Layer_1" xmlns="http://www.w3.org/2000/svg" xmlns:xlink="http://www.w3.org/1999/xlink" x="0px" y="0px"
	 viewBox="0 0 135.3 8.3" enable-background="new 0 0 135.3 8.3" xml:space="preserve">
<g>
	<text transform="matrix(1 0 0 1 38.8786 -5.4102)" fill="#DDA827" font-family="'HYWenHei-HEW'" font-size="23.8173">Xiao</text>
</g>
<g>
	<line fill="none" stroke="#D39A2B" stroke-width="3" stroke-miterlimit="10" x1="8.4" y1="4.6" x2="128" y2="4.6"/>
</g>
<g>
	<path fill="#D39A2B" d="M5.2,8.3L1.4,5L1,4.7l0.4-0.4l3.3-3.7L5.1,0l0.6,0.6L9.4,4l0.9,0.8L9.4,5.4L5.2,8.3z M5.2,8l2.8-4v1.4
		L4.6,1.7h1.1L2.1,5V4.3L5.2,8z"/>
</g>
<g>
	<polygon fill="#D39A2B" points="0.9,5.5 0,4.7 0.9,3.8 1.7,4.7 	"/>
</g>
<g>
	<path fill="#D39A2B" d="M130.1,8l3.1-3.7V5l-3.7-3.3h1.1l-3.3,3.6V3.9L130.1,8z M130.1,8.2l-4.2-2.9l-0.9-0.6l0.9-0.8l3.6-3.3
		l0.6-0.6l0.5,0.6l3.3,3.7l0.4,0.4L133.9,5L130.1,8.2z"/>
</g>
<g>
	<polygon fill="#D39A2B" points="134.4,5.5 135.3,4.6 134.4,3.8 133.6,4.6 	"/>
</g>
</svg>
