<?xml version="1.0" encoding="UTF-8" standalone="no"?>
<!-- Created with Inkscape (http://www.inkscape.org/) -->

<svg
   width="172.55801mm"
   height="125.30732mm"
   viewBox="0 0 172.55801 125.30732"
   version="1.1"
   id="svg1"
   xml:space="preserve"
   inkscape:version="1.3-dev (be383ba0a, 2023-01-01)"
   sodipodi:docname="pyro-slime.svgz"
   inkscape:export-filename="pyro-slime.svgz.webp"
   inkscape:export-xdpi="75.364799"
   inkscape:export-ydpi="75.364799"
   xmlns:inkscape="http://www.inkscape.org/namespaces/inkscape"
   xmlns:sodipodi="http://sodipodi.sourceforge.net/DTD/sodipodi-0.dtd"
   xmlns:xlink="http://www.w3.org/1999/xlink"
   xmlns="http://www.w3.org/2000/svg"
   xmlns:svg="http://www.w3.org/2000/svg"><sodipodi:namedview
     id="namedview1"
     pagecolor="#505050"
     bordercolor="#ffffff"
     borderopacity="1"
     inkscape:showpageshadow="0"
     inkscape:pageopacity="0"
     inkscape:pagecheckerboard="1"
     inkscape:deskcolor="#505050"
     inkscape:document-units="mm"
     inkscape:zoom="0.84096521"
     inkscape:cx="275.87348"
     inkscape:cy="205.716"
     inkscape:window-width="1920"
     inkscape:window-height="1147"
     inkscape:window-x="-8"
     inkscape:window-y="-8"
     inkscape:window-maximized="1"
     inkscape:current-layer="svg1" /><defs
     id="defs1"><linearGradient
       inkscape:collect="always"
       id="linearGradient17"><stop
         style="stop-color:#ffd42a;stop-opacity:1;"
         offset="0"
         id="stop16" /><stop
         style="stop-color:#d45500;stop-opacity:1"
         offset="1"
         id="stop17" /></linearGradient><linearGradient
       inkscape:collect="always"
       id="linearGradient13"><stop
         style="stop-color:#e3dbdb;stop-opacity:1"
         offset="0"
         id="stop11" /><stop
         style="stop-color:#ffe6d5;stop-opacity:1"
         offset="0.61462891"
         id="stop14" /><stop
         style="stop-color:#ff9955;stop-opacity:1"
         offset="0.79593199"
         id="stop12" /><stop
         style="stop-color:#782121;stop-opacity:1"
         offset="1"
         id="stop13" /></linearGradient><linearGradient
       inkscape:collect="always"
       id="linearGradient8"><stop
         style="stop-color:#f4d7d7;stop-opacity:1"
         offset="0"
         id="stop7" /><stop
         style="stop-color:#ff9955;stop-opacity:1"
         offset="0.52110761"
         id="stop10" /><stop
         style="stop-color:#2b0000;stop-opacity:1;"
         offset="1"
         id="stop8" /></linearGradient><linearGradient
       id="linearGradient4"
       inkscape:swatch="solid"><stop
         style="stop-color:#2b0000;stop-opacity:1;"
         offset="0"
         id="stop4" /></linearGradient><radialGradient
       inkscape:collect="always"
       xlink:href="#linearGradient8"
       id="radialGradient9"
       cx="92.456772"
       cy="155.96529"
       fx="92.456772"
       fy="155.96529"
       r="10.494303"
       gradientTransform="matrix(1,0,0,1.9547778,0,-148.9122)"
       gradientUnits="userSpaceOnUse" /><radialGradient
       inkscape:collect="always"
       xlink:href="#linearGradient13"
       id="radialGradient10"
       gradientUnits="userSpaceOnUse"
       gradientTransform="matrix(1,0,0,1.9547778,0,-148.9122)"
       cx="92.456772"
       cy="155.96529"
       fx="92.456772"
       fy="155.96529"
       r="10.494303" /><radialGradient
       inkscape:collect="always"
       xlink:href="#linearGradient13"
       id="radialGradient15"
       gradientUnits="userSpaceOnUse"
       gradientTransform="matrix(1,0,0,1.9547778,-216.8743,-165.05112)"
       cx="92.456772"
       cy="155.96529"
       fx="92.456772"
       fy="155.96529"
       r="10.494303" /><linearGradient
       inkscape:collect="always"
       xlink:href="#linearGradient17"
       id="linearGradient18"
       x1="108.02732"
       y1="207.02438"
       x2="107.8597"
       y2="88.727776"
       gradientUnits="userSpaceOnUse" /><filter
       inkscape:collect="always"
       style="color-interpolation-filters:sRGB"
       id="filter21"
       x="-0.001209225"
       y="-0.00061859972"
       width="1.0024185"
       height="1.0012372"><feGaussianBlur
         inkscape:collect="always"
         stdDeviation="0.010574978"
         id="feGaussianBlur21" /></filter><filter
       inkscape:collect="always"
       style="color-interpolation-filters:sRGB"
       id="filter22"
       x="-0.001209225"
       y="-0.00061859972"
       width="1.0024185"
       height="1.0012372"><feGaussianBlur
         inkscape:collect="always"
         stdDeviation="0.010574978"
         id="feGaussianBlur22" /></filter><filter
       inkscape:collect="always"
       style="color-interpolation-filters:sRGB"
       id="filter23"
       x="-0.0016786346"
       y="-0.0010427197"
       width="1.0033573"
       height="1.0020854"><feGaussianBlur
         inkscape:collect="always"
         stdDeviation="0.014655384"
         id="feGaussianBlur23" /></filter><filter
       inkscape:collect="always"
       style="color-interpolation-filters:sRGB"
       id="filter24"
       x="-0.0016786346"
       y="-0.0010427198"
       width="1.0033573"
       height="1.0020854"><feGaussianBlur
         inkscape:collect="always"
         stdDeviation="0.014655384"
         id="feGaussianBlur24" /></filter><filter
       inkscape:collect="always"
       style="color-interpolation-filters:sRGB"
       id="filter25"
       x="-0.0042661275"
       y="-0.0094579253"
       width="1.0085323"
       height="1.0189159"><feGaussianBlur
         inkscape:collect="always"
         stdDeviation="0.48551629"
         id="feGaussianBlur25" /></filter><filter
       inkscape:collect="always"
       style="color-interpolation-filters:sRGB"
       id="filter26"
       x="-0.067181367"
       y="-0.10235673"
       width="1.1343627"
       height="1.2047135"><feGaussianBlur
         inkscape:collect="always"
         stdDeviation="2.7677427"
         id="feGaussianBlur26" /></filter><clipPath
       clipPathUnits="userSpaceOnUse"
       id="clipPath26"><path
         id="path26"
         style="fill:#ffffff;fill-opacity:1;stroke:none;stroke-width:0.264583"
         d="m 107.67508,84.593803 c -6.15835,-0.02643 -12.337887,0.797015 -18.353916,2.113566 -5.183024,1.134255 -10.203723,2.974197 -15.127759,4.950084 -4.617262,1.852787 -9.244978,3.806886 -13.459129,6.451288 -5.385636,3.379519 -10.426414,7.389519 -14.905548,11.902119 -3.65529,3.6826 -6.7037,7.9458 -9.622152,12.23594 -2.668284,3.92239 -5.246749,7.95653 -7.174241,12.29124 -3.051638,6.86279 -5.529843,14.0731 -6.840925,21.46846 -0.686677,3.87331 -0.862192,7.87342 -0.500744,11.79049 0.402064,4.35722 1.243688,8.76165 2.947623,12.79199 2.208728,5.22433 5.226438,10.27829 9.232513,14.2937 2.981817,2.98877 6.699433,5.33833 10.623124,6.89673 9.895173,3.93014 20.86796,4.3344 31.423404,5.72834 2.454873,0.32419 4.934794,0.41725 7.403425,0.61056 8.004307,0.62678 15.991734,1.75295 24.020495,1.78102 10.79543,0.0377 21.60075,-0.83713 32.31379,-2.16886 10.5658,-1.31342 21.52817,-1.79879 31.42341,-5.72885 3.92362,-1.55833 7.64132,-3.90757 10.62312,-6.89622 4.00614,-4.01534 7.02378,-9.06937 9.23251,-14.2937 1.70394,-4.03034 2.54556,-8.43476 2.94763,-12.79198 0.36147,-3.91724 0.18597,-7.91753 -0.50075,-11.79101 -1.31108,-7.3952 -3.7894,-14.60529 -6.84093,-21.46794 -1.92753,-4.33486 -4.50586,-8.36925 -7.17423,-12.29176 -2.91838,-4.29003 -5.96696,-8.55293 -9.62216,-12.23543 -4.47905,-4.51249 -9.51957,-8.52258 -14.90503,-11.902113 -4.2143,-2.644595 -8.84223,-4.598768 -13.45964,-6.451804 -4.97839,-1.997903 -10.05937,-3.83622 -15.29467,-5.005636 -6.03459,-1.347957 -12.22598,-2.253684 -18.40922,-2.280224 z"
         sodipodi:nodetypes="aaaaaaaaaaaaaaaaaaaaaaaaaaaa"
         inkscape:label="Cuerpo" /></clipPath><filter
       inkscape:collect="always"
       style="color-interpolation-filters:sRGB"
       id="filter27"
       x="-0.022288341"
       y="-0.049412835"
       width="1.0445767"
       height="1.0988257"><feGaussianBlur
         inkscape:collect="always"
         stdDeviation="1.9420652"
         id="feGaussianBlur27" /></filter></defs><g
     inkscape:groupmode="layer"
     id="layer2"
     inkscape:label="Vector"
     style="display:inline"
     transform="translate(-21.507193,-84.593185)"><g
       inkscape:groupmode="layer"
       id="layer5"
       inkscape:label="Cuerpo"><path
         id="path15"
         style="display:inline;fill:url(#linearGradient18);fill-opacity:1;stroke:none;stroke-width:0.264583"
         d="m 107.67508,84.593803 c -6.15835,-0.02643 -12.337886,0.797014 -18.353917,2.113566 -5.183024,1.134256 -10.203722,2.974198 -15.127759,4.950085 -4.617261,1.852785 -9.244978,3.806885 -13.459127,6.451286 -5.385637,3.37952 -10.426416,7.38952 -14.90555,11.90212 -3.655288,3.6826 -6.703699,7.9458 -9.622151,12.23594 -2.668285,3.92239 -5.246748,7.95653 -7.17424,12.29124 -3.051639,6.86279 -5.529844,14.0731 -6.840926,21.46846 -0.686677,3.87331 -0.862192,7.87342 -0.500744,11.79049 0.402064,4.35722 1.243688,8.76165 2.947623,12.79199 2.208727,5.22433 5.226439,10.27829 9.232512,14.2937 2.981818,2.98877 6.699433,5.33833 10.623124,6.89673 9.895175,3.93014 20.867961,4.3344 31.423405,5.72834 2.454872,0.32419 4.934795,0.41725 7.403424,0.61056 8.004308,0.62678 15.991734,1.75295 24.020496,1.78102 10.79543,0.0377 21.60075,-0.83713 32.31379,-2.16886 10.5658,-1.31342 21.52817,-1.79879 31.42341,-5.72885 3.92362,-1.55833 7.64132,-3.90757 10.62312,-6.89622 4.00614,-4.01534 7.02378,-9.06937 9.23251,-14.2937 1.70394,-4.03034 2.54556,-8.43476 2.94763,-12.79198 0.36147,-3.91724 0.18597,-7.91753 -0.50075,-11.79101 -1.31108,-7.3952 -3.7894,-14.60529 -6.84093,-21.46794 -1.92753,-4.33486 -4.50586,-8.36925 -7.17423,-12.29176 -2.91838,-4.29003 -5.96696,-8.55293 -9.62216,-12.23543 -4.47905,-4.51249 -9.51957,-8.52258 -14.90503,-11.902114 -4.2143,-2.644593 -8.84223,-4.598767 -13.45964,-6.451803 -4.97839,-1.997903 -10.05937,-3.836219 -15.29467,-5.005637 -6.03459,-1.347955 -12.22598,-2.253683 -18.40922,-2.280223 z"
         sodipodi:nodetypes="aaaaaaaaaaaaaaaaaaaaaaaaaaaa"
         inkscape:label="Cuerpo" /><g
         id="g26"
         inkscape:label="Textura Cuerpo"
         clip-path="url(#clipPath26)"><path
           style="opacity:0.6;fill:#c87137;fill-opacity:1;stroke:none;stroke-width:0.264583;filter:url(#filter26)"
           d="m 129.92188,127.91966 c -4.61051,0.81075 -6.30491,7.45217 -10.67851,9.12123 -3.11849,1.19008 -8.33162,3.10702 -10.0111,0.22247 -3.34672,-5.74806 12.11964,-10.75175 10.23357,-17.13011 -1.47645,-4.99309 -9.0721,-8.53152 -14.01555,-6.89654 -5.699369,1.88498 -5.995564,10.44665 -8.231349,16.01776 -1.843876,4.59455 -0.115111,11.48069 -4.22691,14.23802 -5.509468,3.6946 -13.213048,-2.78948 -19.799739,-2.00222 -6.869932,0.82111 -17.150136,0.4174 -19.577269,6.89654 -2.481316,6.62378 3.792215,16.09326 10.456042,18.46492 4.42408,1.57453 8.448179,-4.7012 13.12567,-5.11678 4.968783,-0.44146 12.415105,-1.55095 14.682951,2.89209 1.448113,2.83706 -5.705155,5.98305 -4.004442,8.67629 3.326158,5.26728 13.017676,2.80353 18.687396,0.22247 7.08633,-3.22595 7.35795,-18.29835 15.12789,-17.79752 5.02892,0.32415 4.49158,9.30298 8.23135,12.68073 4.701,4.24593 11.25033,11.52625 16.90764,8.67629 6.10802,-3.07701 6.08056,-13.97977 3.33704,-20.24467 -2.70617,-6.17962 -12.00892,-6.48517 -16.90764,-11.12345 -3.0802,-2.91644 -7.73365,-5.99512 -7.56395,-10.23357 0.12196,-3.0461 6.75421,-3.94108 6.00666,-6.89654 -0.15537,-0.61425 -1.15573,-0.77714 -1.77975,-0.66741 z"
           id="path25"
           sodipodi:nodetypes="aaaaaaaaaaaaaaaaaaaaaa" /><path
           style="opacity:0.6;fill:#ffd42a;fill-opacity:1;stroke:none;stroke-width:0.264583;filter:url(#filter27)"
           d="m 205.7838,153.05865 c 0,0 -4.2002,19.37564 -11.12345,25.58394 -4.27829,3.83649 -10.8212,6.21038 -16.4627,5.11678 -3.57022,-0.69209 -7.4405,-3.40387 -8.45382,-6.89653 -0.71876,-2.47737 1.07843,-5.15503 2.44716,-7.34148 2.42079,-3.86705 9.78863,-9.56617 9.78863,-9.56617 0,0 -11.33482,4.73685 -17.35258,5.56173 -7.79329,1.06826 -15.93998,0.97571 -23.58171,-0.88988 -5.73617,-1.40038 -12.4929,-2.82685 -16.01777,-7.56394 -2.37283,-3.18885 -1.77975,-11.79086 -1.77975,-11.79086 0,0 -4.57099,9.81787 -3.33703,14.68295 1.18854,4.68602 5.23736,8.74856 9.56616,10.90098 4.59367,2.28412 10.48767,-0.52264 15.35036,1.11235 3.35333,1.12749 7.39086,2.58383 8.89876,5.78419 1.11345,2.36319 0.81221,5.80466 -0.88988,7.78641 -4.60633,5.36317 -13.41526,5.05893 -20.46714,5.56173 -6.63329,0.47296 -14.15891,1.07495 -19.79974,-2.44716 -4.95487,-3.0938 -3.9654,-13.02353 -9.56617,-14.68295 -7.544097,-2.2352 -13.763328,8.66218 -21.579486,9.56616 -5.547929,0.64165 -11.280256,-1.03286 -16.462703,-3.11456 -5.172388,-2.07766 -10.73869,-4.61207 -14.015545,-9.12123 -2.347643,-3.2305 -3.114567,-11.56839 -3.114567,-11.56839 0,0 -5.807119,7.86944 -4.671848,12.01333 1.269989,4.63563 7.089323,6.66641 11.345918,8.89876 3.988241,2.09161 9.41217,1.15951 12.9032,4.00444 1.903976,1.5516 3.559503,6.4516 3.559503,6.4516 0,0 -8.811372,-0.17458 -12.68073,-2.00222 -7.979564,-3.76904 -14.315184,-10.66138 -19.799739,-17.57505 -3.773797,-4.75714 -7.098154,-10.15421 -8.676291,-16.01777 -1.966678,-7.30718 -0.667406,-22.69183 -0.667406,-22.69183 l -7.786415,9.12123 c 0,0 2.944313,11.21435 5.339257,16.4627 2.444491,5.35693 7.279987,9.53485 9.121227,15.12789 0.745278,2.26389 0.667406,7.11901 0.667406,7.11901 0,0 -9.757673,-0.66099 -13.570607,-3.33704 C 15.911011,172.39262 8.6762901,155.95075 8.6762901,155.95075 l 10.0111039,46.71849 43.38145,19.57726 86.985366,4.89432 52.28021,-20.91208 16.46271,-44.71626 z"
           id="path24"
           sodipodi:nodetypes="caaaacaaacaaaaaaaaaaacaaacaaaccaacaccccccc" /><path
           style="display:inline;opacity:0.6;fill:#28170b;fill-opacity:1;stroke:none;stroke-width:0.264583"
           d="m 96.551534,93.659438 c 1.164592,-1.48566 3.282049,-2.260424 4.004446,-4.004443 0.34054,-0.822138 0.58094,-1.995544 0,-2.669627 -3.279513,-3.805319 -9.951949,-3.060595 -14.905424,-2.224688 -3.466961,0.585055 -6.596268,2.70029 -9.343697,4.894315 -2.05527,1.641284 -3.514601,3.920772 -5.116788,6.006664 -0.794074,1.033807 -1.710331,2.019095 -2.222374,3.217895 -0.741664,1.736396 -0.567163,3.749586 -1.141651,5.548226 -0.384599,1.20412 -1.530293,3.46967 -1.530293,3.46967 0,0 3.236807,-0.13739 4.775178,-0.59106 2.064591,-0.60887 3.728703,-2.27553 5.8135,-2.81113 2.749784,-0.70644 5.712862,0.0642 8.505486,-0.44725 2.081019,-0.38115 4.38411,-0.62406 6.044833,-1.93475 2.585638,-2.04067 3.084663,-5.861463 5.116784,-8.453822 z"
           id="path27"
           sodipodi:nodetypes="aaaaaaaacaaaaa" /><path
           style="opacity:0.6;fill:#28170b;fill-opacity:1;stroke:none;stroke-width:0.264583"
           d="m 117.98199,112.71213 c -0.7644,-1.0653 0.0999,-2.63376 -0.0786,-3.93273 -0.21378,-1.55607 -1.4845,-3.02112 -1.17982,-4.56198 0.58485,-2.95783 4.37692,-4.409958 5.42717,-7.236223 0.40277,-1.083865 -0.42674,-2.513277 0.23596,-3.460806 0.29599,-0.423202 0.91335,-0.748692 1.41578,-0.629237 0.72505,0.172384 1.12763,1.043101 1.41579,1.730401 1.4072,3.356368 0.3257,7.316565 1.17982,10.854345 0.53365,2.21039 2.48762,4.09767 2.43829,6.37103 -0.0186,0.85702 -0.38384,1.78786 -1.02251,2.35964 -0.79706,0.71358 -1.99801,0.96924 -3.06753,0.94385 -2.39612,-0.0569 -5.36703,-0.49095 -6.76435,-2.43829 z"
           id="path28"
           sodipodi:nodetypes="aaaaaaaaaaaa" /><path
           style="opacity:0.6;fill:#28170b;fill-opacity:1;stroke:none;stroke-width:0.264583"
           d="m 120.18432,85.025687 c -0.60535,1.735141 3.0283,2.196808 4.09004,3.696769 0.90303,1.275749 0.82134,3.114639 1.80906,4.326006 1.70492,2.090955 4.25263,3.396097 6.68565,4.561972 3.90431,1.8709 8.22853,2.720396 12.42743,3.775426 2.85246,0.71671 5.87009,0.7759 8.65202,1.7304 2.2181,0.76105 4.18153,2.12466 6.29237,3.14619 1.2247,0.59268 2.41169,2.1773 3.69677,1.7304 0.38761,-0.1348 0.60592,-0.69454 0.55058,-1.10117 -0.19525,-1.43472 -1.94726,-2.14352 -2.91022,-3.22484 -3.06407,-3.44067 -5.84795,-7.142867 -9.12394,-10.382412 -3.49008,-3.451255 -6.5146,-8.037431 -11.16896,-9.595869 -6.65148,-2.227141 -18.69019,-5.285823 -21.0008,1.337128 z"
           id="path29"
           sodipodi:nodetypes="aaaaaaaaaaaaa" /></g></g><g
       inkscape:groupmode="layer"
       id="layer4"
       inkscape:label="Ojos"><ellipse
         style="fill:url(#radialGradient10);fill-opacity:1;stroke:none;stroke-width:0.334817;filter:url(#filter22)"
         id="path3"
         cx="92.456772"
         cy="155.96529"
         rx="10.494303"
         ry="20.51403"
         transform="matrix(0.9972315,-0.07435953,-0.03894419,0.99924139,0,0)"
         inkscape:label="Ojo Izq" /><ellipse
         style="fill:url(#radialGradient15);fill-opacity:1;stroke:none;stroke-width:0.334817;filter:url(#filter21)"
         id="ellipse15"
         cx="-124.41756"
         cy="139.8264"
         rx="10.494303"
         ry="20.51403"
         transform="matrix(-0.9972315,-0.07435953,0.03894419,0.99924139,0,0)"
         inkscape:label="Ojo Der" /></g><g
       inkscape:groupmode="layer"
       id="layer3"
       inkscape:label="Cuernos"><path
         style="fill:#ffccaa;stroke:none;stroke-width:0.264583;filter:url(#filter24)"
         d="m 72.316493,116.11135 c 0,0 -4.71186,-6.07858 -6.72969,-9.34369 -2.03585,-3.29427 -2.98234,-7.259907 -5.39487,-10.289191 -0.63889,-0.802211 -1.31512,-1.903956 -2.33593,-2.00222 -0.93388,-0.08989 -1.85514,0.662608 -2.44715,1.39043 -2.5564,3.14284 -3.19685,7.551891 -3.72636,11.568391 -0.49007,3.71731 -0.49669,7.63606 0.55617,11.23468 0.99567,3.40315 5.28364,9.23246 5.28364,9.23246 0,0 4.68983,0.74081 6.7853,-0.11123 2.47837,-1.00773 4.38183,-3.26287 5.83982,-5.50611 1.18864,-1.82882 2.16907,-6.17352 2.16907,-6.17352 z"
         id="path2"
         sodipodi:nodetypes="caaaaaacaac"
         inkscape:label="Cuerno Izq" /><path
         style="fill:#ffccaa;stroke:none;stroke-width:0.264583;filter:url(#filter23)"
         d="m 142.60261,116.74059 c 0,0 4.71186,-6.07858 6.72969,-9.34369 2.03585,-3.29427 2.98234,-7.25991 5.39487,-10.289194 0.63889,-0.802211 1.31512,-1.903956 2.33593,-2.00222 0.93388,-0.08989 1.85514,0.662608 2.44715,1.39043 2.5564,3.14284 3.19685,7.551894 3.72636,11.568394 0.49007,3.71731 0.49669,7.63606 -0.55617,11.23468 -0.99567,3.40315 -5.28364,9.23246 -5.28364,9.23246 0,0 -4.68983,0.74081 -6.7853,-0.11123 -2.47837,-1.00773 -4.38183,-3.26287 -5.83982,-5.50611 -1.18864,-1.82882 -2.16907,-6.17352 -2.16907,-6.17352 z"
         id="path1"
         sodipodi:nodetypes="caaaaaacaac"
         inkscape:label="Cuerno Der" /></g><g
       inkscape:groupmode="layer"
       id="layer6"
       inkscape:label="Máscara Cuerpo"
       sodipodi:insensitive="true"
       style="display:none" /></g></svg>
